# xmcd
#
# Track frame offsets:
#	150
#	22637
#	39595
#	50112
#	68992
#	85407
#	101167
#	117815
#	141165
#	169005
#	188865
#
# Disc length: 2786 seconds
#
# Revision: 1
# Processed by: cddbd v1.5.2PL0 Copyright (c) Steve Scherf et al.
# Submitted via: audiograbber 1.83.01
#
DISCID=940ae00b
DTITLE=Linda Brooks - Under a Painted Moon
DYEAR=1995
DGENRE=Country
TTITLE0=Painted Moon
TTITLE1=Slow Boat to China
TTITLE2=When You and I Were Young, Maggie
TTITLE3=Time Passes On
TTITLE4=Maggie's Promise
TTITLE5=I Feel the Winds of God
TTITLE6=Trust the Wind
TTITLE7=I'll Stay
TTITLE8=Rosemary's Sister
TTITLE9=A Song for You
TTITLE10=Just This Piano
EXTD=
EXTT0=
EXTT1=
EXTT2=
EXTT3=
EXTT4=
EXTT5=
EXTT6=
EXTT7=
EXTT8=
EXTT9=
EXTT10=
PLAYORDER=
